<?xml version="1.0" encoding="UTF-8" standalone="no"?>
<!DOCTYPE svg PUBLIC "-//W3C//DTD SVG 1.1//EN"
 "http://www.w3.org/Graphics/SVG/1.1/DTD/svg11.dtd">
<!-- Generated by graphviz version 2.43.0 (0)
 -->
<!-- Title: G Pages: 1 -->
<svg width="353pt" height="439pt"
 viewBox="0.00 0.00 353.00 439.00" xmlns="http://www.w3.org/2000/svg" xmlns:xlink="http://www.w3.org/1999/xlink">
<g id="graph0" class="graph" transform="scale(1 1) rotate(0) translate(4 435)">
<title>G</title>
<polygon fill="white" stroke="transparent" points="-4,4 -4,-435 349,-435 349,4 -4,4"/>
<g id="clust1" class="cluster">
<title>cluster_root</title>
<g id="a_clust1"><a xlink:title="eventq_index=0&#10;full_system=false&#10;sim_quantum=0&#10;time_sync_enable=false&#10;time_sync_period=100000000000&#10;time_sync_spin_threshold=100000000">
<path fill="#bab6ae" stroke="#000000" d="M20,-8C20,-8 325,-8 325,-8 331,-8 337,-14 337,-20 337,-20 337,-411 337,-411 337,-417 331,-423 325,-423 325,-423 20,-423 20,-423 14,-423 8,-417 8,-411 8,-411 8,-20 8,-20 8,-14 14,-8 20,-8"/>
<text text-anchor="middle" x="172.5" y="-407.8" font-family="Arial" font-size="14.00" fill="#000000">root </text>
<text text-anchor="middle" x="172.5" y="-392.8" font-family="Arial" font-size="14.00" fill="#000000">: Root</text>
</a>
</g>
</g>
<g id="clust2" class="cluster">
<title>cluster_system</title>
<g id="a_clust2"><a xlink:title="byte_order=little&#10;cache_line_size=64&#10;eventq_index=0&#10;exit_on_work_items=false&#10;init_param=0&#10;m5ops_base=0&#10;mem_mode=timing&#10;mem_ranges=0:536870912&#10;memories=system.mem_ctrl.dram&#10;mmap_using_noreserve=false&#10;multi_thread=false&#10;&#10;um_work_ids=16&#10;&#13;eadfile=&#10;&#13;edirect_paths=&#10;shadow_rom_ranges=&#10;shared_backstore=&#10;symbolfile=&#10;thermal_components=&#10;thermal_model=Null&#10;work_begin_ckpt_count=0&#10;work_begin_cpu_id_exit=&#45;1&#10;work_begin_exit_count=0&#10;work_cpus_ckpt_count=0&#10;work_end_ckpt_count=0&#10;work_end_exit_count=0&#10;work_item_id=&#45;1&#10;workload=system.workload">
<path fill="#e4e7eb" stroke="#000000" d="M28,-16C28,-16 317,-16 317,-16 323,-16 329,-22 329,-28 329,-28 329,-365 329,-365 329,-371 323,-377 317,-377 317,-377 28,-377 28,-377 22,-377 16,-371 16,-365 16,-365 16,-28 16,-28 16,-22 22,-16 28,-16"/>
<text text-anchor="middle" x="172.5" y="-361.8" font-family="Arial" font-size="14.00" fill="#000000">system </text>
<text text-anchor="middle" x="172.5" y="-346.8" font-family="Arial" font-size="14.00" fill="#000000">: System</text>
</a>
</g>
</g>
<g id="clust6" class="cluster">
<title>cluster_system_cpu</title>
<g id="a_clust6"><a xlink:title="accel_0=Null&#10;branchPred=Null&#10;checker=Null&#10;clk_domain=system.clk_domain&#10;cpu_id=&#45;1&#10;do_checkpoint_insts=true&#10;do_statistics_insts=true&#10;eventq_index=0&#10;function_trace=false&#10;function_trace_start=0&#10;interrupts=system.cpu.interrupts&#10;isa=system.cpu.isa&#10;max_insts_all_threads=0&#10;max_insts_any_thread=0&#10;mmu=system.cpu.mmu&#10;&#10;umThreads=1&#10;&#10;um_accels=0&#10;power_gating_on_idle=false&#10;power_model=&#10;power_state=system.cpu.power_state&#10;progress_interval=0&#10;pwr_gating_latency=300&#10;simpoint_start_insts=&#10;socket_id=0&#10;switched_out=false&#10;syscallRetryLatency=10000&#10;system=system&#10;tracer=system.cpu.tracer&#10;workload=system.cpu.workload">
<path fill="#bbc6d9" stroke="#000000" d="M36,-24C36,-24 224,-24 224,-24 230,-24 236,-30 236,-36 236,-36 236,-103 236,-103 236,-109 230,-115 224,-115 224,-115 36,-115 36,-115 30,-115 24,-109 24,-103 24,-103 24,-36 24,-36 24,-30 30,-24 36,-24"/>
<text text-anchor="middle" x="130" y="-99.8" font-family="Arial" font-size="14.00" fill="#000000">cpu </text>
<text text-anchor="middle" x="130" y="-84.8" font-family="Arial" font-size="14.00" fill="#000000">: TimingSimpleCPU</text>
</a>
</g>
</g>
<g id="clust21" class="cluster">
<title>cluster_system_membus</title>
<g id="a_clust21"><a xlink:title="clk_domain=system.clk_domain&#10;eventq_index=0&#10;forward_latency=4&#10;frontend_latency=3&#10;header_latency=1&#10;max_outstanding_snoops=512&#10;max_routing_table_size=512&#10;point_of_coherency=true&#10;point_of_unification=true&#10;power_model=&#10;power_state=system.membus.power_state&#10;&#13;esponse_latency=2&#10;snoop_filter=system.membus.snoop_filter&#10;snoop_response_latency=4&#10;system=system&#10;use_default_range=false&#10;width=16">
<path fill="#6f798c" stroke="#000000" d="M73,-155C73,-155 309,-155 309,-155 315,-155 321,-161 321,-167 321,-167 321,-234 321,-234 321,-240 315,-246 309,-246 309,-246 73,-246 73,-246 67,-246 61,-240 61,-234 61,-234 61,-167 61,-167 61,-161 67,-155 73,-155"/>
<text text-anchor="middle" x="191" y="-230.8" font-family="Arial" font-size="14.00" fill="#000000">membus </text>
<text text-anchor="middle" x="191" y="-215.8" font-family="Arial" font-size="14.00" fill="#000000">: SystemXBar</text>
</a>
</g>
</g>
<g id="clust24" class="cluster">
<title>cluster_system_mem_ctrl</title>
<g id="a_clust24"><a xlink:title="clk_domain=system.clk_domain&#10;command_window=10000&#10;dram=system.mem_ctrl.dram&#10;eventq_index=0&#10;mem_sched_policy=frfcfs&#10;min_writes_per_switch=16&#10;&#10;vm=Null&#10;power_model=&#10;power_state=system.mem_ctrl.power_state&#10;qos_policy=Null&#10;qos_priorities=1&#10;qos_priority_escalation=false&#10;qos_q_policy=fifo&#10;qos_requestors= &#160;&#160;&#160;&#160;&#160;&#160;&#160;&#160;&#160;&#160;&#160;&#160;&#160;&#160;&#10;qos_syncro_scheduler=false&#10;qos_turnaround_policy=Null&#10;static_backend_latency=10000&#10;static_frontend_latency=10000&#10;system=system&#10;write_high_thresh_perc=85&#10;write_low_thresh_perc=50">
<path fill="#bab6ae" stroke="#000000" d="M256,-24C256,-24 309,-24 309,-24 315,-24 321,-30 321,-36 321,-36 321,-103 321,-103 321,-109 315,-115 309,-115 309,-115 256,-115 256,-115 250,-115 244,-109 244,-103 244,-103 244,-36 244,-36 244,-30 250,-24 256,-24"/>
<text text-anchor="middle" x="282.5" y="-99.8" font-family="Arial" font-size="14.00" fill="#000000">mem_ctrl </text>
<text text-anchor="middle" x="282.5" y="-84.8" font-family="Arial" font-size="14.00" fill="#000000">: MemCtrl</text>
</a>
</g>
</g>
<!-- system_system_port -->
<g id="node1" class="node">
<title>system_system_port</title>
<path fill="#b6b8bc" stroke="#000000" d="M89.5,-294.5C89.5,-294.5 156.5,-294.5 156.5,-294.5 162.5,-294.5 168.5,-300.5 168.5,-306.5 168.5,-306.5 168.5,-318.5 168.5,-318.5 168.5,-324.5 162.5,-330.5 156.5,-330.5 156.5,-330.5 89.5,-330.5 89.5,-330.5 83.5,-330.5 77.5,-324.5 77.5,-318.5 77.5,-318.5 77.5,-306.5 77.5,-306.5 77.5,-300.5 83.5,-294.5 89.5,-294.5"/>
<text text-anchor="middle" x="123" y="-308.8" font-family="Arial" font-size="14.00" fill="#000000">system_port</text>
</g>
<!-- system_membus_cpu_side_ports -->
<g id="node4" class="node">
<title>system_membus_cpu_side_ports</title>
<path fill="#586070" stroke="#000000" d="M81,-163.5C81,-163.5 165,-163.5 165,-163.5 171,-163.5 177,-169.5 177,-175.5 177,-175.5 177,-187.5 177,-187.5 177,-193.5 171,-199.5 165,-199.5 165,-199.5 81,-199.5 81,-199.5 75,-199.5 69,-193.5 69,-187.5 69,-187.5 69,-175.5 69,-175.5 69,-169.5 75,-163.5 81,-163.5"/>
<text text-anchor="middle" x="123" y="-177.8" font-family="Arial" font-size="14.00" fill="#000000">cpu_side_ports</text>
</g>
<!-- system_system_port&#45;&gt;system_membus_cpu_side_ports -->
<g id="edge1" class="edge">
<title>system_system_port&#45;&gt;system_membus_cpu_side_ports</title>
<path fill="none" stroke="black" d="M123,-294.37C123,-272.78 123,-235.41 123,-209.85"/>
<polygon fill="black" stroke="black" points="126.5,-209.7 123,-199.7 119.5,-209.7 126.5,-209.7"/>
</g>
<!-- system_cpu_icache_port -->
<g id="node2" class="node">
<title>system_cpu_icache_port</title>
<path fill="#959ead" stroke="#000000" d="M154,-32.5C154,-32.5 216,-32.5 216,-32.5 222,-32.5 228,-38.5 228,-44.5 228,-44.5 228,-56.5 228,-56.5 228,-62.5 222,-68.5 216,-68.5 216,-68.5 154,-68.5 154,-68.5 148,-68.5 142,-62.5 142,-56.5 142,-56.5 142,-44.5 142,-44.5 142,-38.5 148,-32.5 154,-32.5"/>
<text text-anchor="middle" x="185" y="-46.8" font-family="Arial" font-size="14.00" fill="#000000">icache_port</text>
</g>
<!-- system_cpu_dcache_port -->
<g id="node3" class="node">
<title>system_cpu_dcache_port</title>
<path fill="#959ead" stroke="#000000" d="M44.5,-32.5C44.5,-32.5 111.5,-32.5 111.5,-32.5 117.5,-32.5 123.5,-38.5 123.5,-44.5 123.5,-44.5 123.5,-56.5 123.5,-56.5 123.5,-62.5 117.5,-68.5 111.5,-68.5 111.5,-68.5 44.5,-68.5 44.5,-68.5 38.5,-68.5 32.5,-62.5 32.5,-56.5 32.5,-56.5 32.5,-44.5 32.5,-44.5 32.5,-38.5 38.5,-32.5 44.5,-32.5"/>
<text text-anchor="middle" x="78" y="-46.8" font-family="Arial" font-size="14.00" fill="#000000">dcache_port</text>
</g>
<!-- system_membus_cpu_side_ports&#45;&gt;system_cpu_icache_port -->
<g id="edge2" class="edge">
<title>system_membus_cpu_side_ports&#45;&gt;system_cpu_icache_port</title>
<path fill="none" stroke="black" d="M135.62,-154.25C147.9,-128.7 166.2,-90.61 176.73,-68.7"/>
<polygon fill="black" stroke="black" points="132.41,-152.84 131.23,-163.37 138.72,-155.87 132.41,-152.84"/>
</g>
<!-- system_membus_cpu_side_ports&#45;&gt;system_cpu_dcache_port -->
<g id="edge3" class="edge">
<title>system_membus_cpu_side_ports&#45;&gt;system_cpu_dcache_port</title>
<path fill="none" stroke="black" d="M113.73,-153.91C104.81,-128.37 91.61,-90.52 84,-68.7"/>
<polygon fill="black" stroke="black" points="110.43,-155.08 117.02,-163.37 117.04,-152.77 110.43,-155.08"/>
</g>
<!-- system_membus_mem_side_ports -->
<g id="node5" class="node">
<title>system_membus_mem_side_ports</title>
<path fill="#586070" stroke="#000000" d="M207,-163.5C207,-163.5 301,-163.5 301,-163.5 307,-163.5 313,-169.5 313,-175.5 313,-175.5 313,-187.5 313,-187.5 313,-193.5 307,-199.5 301,-199.5 301,-199.5 207,-199.5 207,-199.5 201,-199.5 195,-193.5 195,-187.5 195,-187.5 195,-175.5 195,-175.5 195,-169.5 201,-163.5 207,-163.5"/>
<text text-anchor="middle" x="254" y="-177.8" font-family="Arial" font-size="14.00" fill="#000000">mem_side_ports</text>
</g>
<!-- system_mem_ctrl_port -->
<g id="node6" class="node">
<title>system_mem_ctrl_port</title>
<path fill="#94918b" stroke="#000000" d="M264,-32.5C264,-32.5 294,-32.5 294,-32.5 300,-32.5 306,-38.5 306,-44.5 306,-44.5 306,-56.5 306,-56.5 306,-62.5 300,-68.5 294,-68.5 294,-68.5 264,-68.5 264,-68.5 258,-68.5 252,-62.5 252,-56.5 252,-56.5 252,-44.5 252,-44.5 252,-38.5 258,-32.5 264,-32.5"/>
<text text-anchor="middle" x="279" y="-46.8" font-family="Arial" font-size="14.00" fill="#000000">port</text>
</g>
<!-- system_membus_mem_side_ports&#45;&gt;system_mem_ctrl_port -->
<g id="edge4" class="edge">
<title>system_membus_mem_side_ports&#45;&gt;system_mem_ctrl_port</title>
<path fill="none" stroke="black" d="M257.32,-163.37C261.5,-141.78 268.75,-104.41 273.7,-78.85"/>
<polygon fill="black" stroke="black" points="277.2,-79.18 275.67,-68.7 270.33,-77.85 277.2,-79.18"/>
</g>
</g>
</svg>
